<svg width="18" height="14" viewBox="0 0 18 14" fill="none" xmlns="http://www.w3.org/2000/svg">
<g clip-path="url(#clip0_2032_39)">
<path d="M0.691528 12.9865C1.04587 13.3189 1.51421 13.5027 2.00003 13.5H16C17.1045 13.5 18 12.6045 18 11.25V7H8.75003L0.691528 12.9865Z" fill="#D7141A"/>
<path d="M16 0.5H2C1.51226 0.499871 1.04146 0.678868 0.677002 1.003L8.75 7H18V2.5C18 1.96957 17.7893 1.46086 17.4142 1.08579C17.0391 0.710714 16.5304 0.5 16 0.5Z" fill="#EEEEEE"/>
<path d="M0.6915 12.9865L8.75 6.99999L0.677 1.00299C0.464213 1.19004 0.293762 1.42032 0.17702 1.67846C0.0602779 1.93661 -7.08466e-05 2.21668 6.24154e-08 2.49999V11.25C6.24154e-08 11.99 0.2685 12.5915 0.6915 12.9865Z" fill="#11457E"/>
</g>
<defs>
<clipPath id="clip0_2032_39">
<rect width="18" height="14" fill="white"/>
</clipPath>
</defs>
</svg>
