<svg width="18" height="14" viewBox="0 0 18 14" fill="none" xmlns="http://www.w3.org/2000/svg">
<g clip-path="url(#clip0_2032_8)">
<path d="M16 0.5H2C1.46957 0.5 0.960859 0.710714 0.585786 1.08579C0.210714 1.46086 0 1.96957 0 2.5L0 7H18V2.5C18 1.96957 17.7893 1.46086 17.4142 1.08579C17.0391 0.710714 16.5304 0.5 16 0.5Z" fill="#EEEEEE"/>
<path d="M0 11.5C0 12.0304 0.210714 12.5391 0.585786 12.9142C0.960859 13.2893 1.46957 13.5 2 13.5H16C16.5304 13.5 17.0391 13.2893 17.4142 12.9142C17.7893 12.5391 18 12.0304 18 11.5V7H0V11.5Z" fill="#DC143C"/>
</g>
<defs>
<clipPath id="clip0_2032_8">
<rect width="18" height="14" fill="white"/>
</clipPath>
</defs>
</svg>
